<svg id="visual" viewBox="0 0 900 900" width="900" height="900" xmlns="http://www.w3.org/2000/svg" xmlns:xlink="http://www.w3.org/1999/xlink" version="1.1"><rect x="0" y="0" width="900" height="900" fill="#ffffff"></rect><defs><linearGradient id="grad1_0" x1="0%" y1="0%" x2="100%" y2="100%"><stop offset="30%" stop-color="#ffffff" stop-opacity="1"></stop><stop offset="70%" stop-color="#ffffff" stop-opacity="1"></stop></linearGradient></defs><defs><linearGradient id="grad2_0" x1="0%" y1="0%" x2="100%" y2="100%"><stop offset="30%" stop-color="#ffffff" stop-opacity="1"></stop><stop offset="70%" stop-color="#ffffff" stop-opacity="1"></stop></linearGradient></defs><g transform="translate(900, 0)"><path d="M0 509.1C-99.5 501.8 -199 494.6 -254.6 440.9C-310.1 387.3 -321.7 287.2 -356.8 206C-391.9 124.8 -450.5 62.4 -509.1 0L0 0Z" fill="#FCAF3C"></path></g><g transform="translate(0, 900)"><path d="M0 -509.1C49.6 -428.3 99.2 -347.6 182 -315.2C264.8 -282.9 380.9 -299 440.9 -254.6C501 -210.1 505 -105 509.1 0L0 0Z" fill="#FCAF3C"></path></g></svg>